<svg xmlns="http://www.w3.org/2000/svg" width="34.364" height="27" viewBox="0 0 34.364 27">
  <path id="schedule-svgrepo-com" d="M97.136,162.455H91v-2.148a.308.308,0,0,0-.307-.307H88.545a.308.308,0,0,0-.307.307v2.148H82.563v-2.148a.308.308,0,0,0-.307-.307H80.108a.308.308,0,0,0-.307.307v2.148H74.125v-2.148a.308.308,0,0,0-.307-.307H71.67a.308.308,0,0,0-.307.307v2.148H65.227A1.226,1.226,0,0,0,64,163.682v22.091A1.226,1.226,0,0,0,65.227,187H97.136a1.226,1.226,0,0,0,1.227-1.227V163.682A1.226,1.226,0,0,0,97.136,162.455Zm-19.33,17.8a.308.308,0,0,1-.307.307H70.443a.308.308,0,0,1-.307-.307v-1.841a.308.308,0,0,1,.307-.307H77.5a.308.308,0,0,1,.307.307Zm0-5.216a.308.308,0,0,1-.307.307H70.443a.308.308,0,0,1-.307-.307v-1.841a.308.308,0,0,1,.307-.307H77.5a.308.308,0,0,1,.307.307Zm14.363-3.5L85.842,180.3a.61.61,0,0,1-.989,0l-4.38-6.067a.308.308,0,0,1,.249-.487h2.106a.616.616,0,0,1,.495.253l2.025,2.8,3.977-5.511a.605.605,0,0,1,.495-.253h2.1A.311.311,0,0,1,92.17,171.533Z" transform="translate(-64 -160)" fill="#4285f4"/>
</svg>
