<svg xmlns="http://www.w3.org/2000/svg" width="27" height="27" viewBox="0 0 27 27">
  <g id="home-svgrepo-com" transform="translate(0 -1.504)">
    <g id="c14_house" transform="translate(0 1.504)">
      <path id="Path_117" data-name="Path 117" d="M3.588,24.3a.552.552,0,0,0,.571.59l6.866-.008.01-5.451a.779.779,0,0,1,.8-.9h2.85c1.064,0,1,.9,1,.9l-.012,5.434H22.4a.688.688,0,0,0,.722-.734V14.076L13.644,5.913,3.588,14.077S3.588,24.3,3.588,24.3Z" transform="translate(0 2.113)" fill="#4285f4"/>
      <path id="Path_118" data-name="Path 118" d="M0,13.317s.845,1.524,2.692,0L13.722,4.2,24.063,13.26c2.136,1.506,2.937,0,2.937,0L13.722,1.5Z" transform="translate(0 -1.504)" fill="#4285f4"/>
      <path id="Path_119" data-name="Path 119" d="M23.273,4.175h-2.6l.011,3.153,2.588,2.2Z" transform="translate(0.61 -1.504)" fill="#4285f4"/>
    </g>
  </g>
</svg>
