<svg xmlns="http://www.w3.org/2000/svg" width="27" height="27" viewBox="0 0 27 27">
  <g id="handshake-cartoon-gesture-svgrepo-com" transform="translate(0 -4.069)">
    <path id="Path_120" data-name="Path 120" d="M4.5,15.6a1.849,1.849,0,0,1-2.779.308L.724,15a2.347,2.347,0,0,1-.277-3.074L5.666,4.87a1.848,1.848,0,0,1,2.779-.308l1,.905a2.345,2.345,0,0,1,.277,3.074ZM26.317,10.63,20.086,4.665a1.846,1.846,0,0,0-2.786.222l-.847,1.082a2.348,2.348,0,0,0,.2,3.081l6.231,5.965a1.847,1.847,0,0,0,2.786-.222l.845-1.081A2.348,2.348,0,0,0,26.317,10.63ZM23.24,20.419a4.865,4.865,0,0,1-.913,3.344l-2.5,3.376a4,4,0,0,1-2.782,1.65,3.766,3.766,0,0,1-1.019-.025,3.876,3.876,0,0,1-1.753-.786L13.225,29.4a3.856,3.856,0,0,1-5.806.642L4.366,27.273A4.689,4.689,0,0,1,2.873,24.2a4.867,4.867,0,0,1,.914-3.343l1.4-1.891a.579.579,0,0,1,.4-.237.554.554,0,0,1,.434.145l6.92,6.264a.578.578,0,0,1,.124.084l1.71,1.547a2.733,2.733,0,0,0,2.154.72,2.857,2.857,0,0,0,1.984-1.177l2.5-3.376A3.5,3.5,0,0,0,21,18.355l-1.775-1.523a4.194,4.194,0,0,1-2.96,1.626c-2.191.162-4.3-1.473-5.27-2.355C9.6,18.312,7.959,18.36,7.884,18.361a.511.511,0,0,1-.093-.007.558.558,0,0,1-.2-.071A2.146,2.146,0,0,1,6.5,16.9a4.035,4.035,0,0,1,.827-2.881c1.846-3.076,4.019-3.056,5.318-3.044a4.947,4.947,0,0,0,.75-.026,1.84,1.84,0,0,0,1.235-1.128.578.578,0,0,1,.769-.369.68.68,0,0,1,.333.851,3.066,3.066,0,0,1-2.167,1.942,5.729,5.729,0,0,1-.931.04c-1.261-.012-2.83-.026-4.322,2.459-.648,1.079-.719,1.6-.664,1.838a.749.749,0,0,0,.356.444c.371-.078,1.43-.454,2.335-2.249a.6.6,0,0,1,.433-.329.558.558,0,0,1,.5.18c.025.027,2.522,2.7,4.912,2.518a3.227,3.227,0,0,0,2.43-1.554.8.8,0,0,1,1.006-.079l2.113,1.812A4.7,4.7,0,0,1,23.24,20.419Zm-9.908,6.764L5.726,20.3,4.7,21.684a3.469,3.469,0,0,0-.651,2.382A3.343,3.343,0,0,0,5.116,26.26l3.053,2.764a2.748,2.748,0,0,0,4.139-.457Z" transform="translate(0 0)" fill="#4285f4"/>
  </g>
</svg>
