<svg xmlns="http://www.w3.org/2000/svg" width="27" height="27" viewBox="0 0 27 27">
  <g id="_-Product-Icons" data-name="ðŸ”-Product-Icons" transform="translate(-2 -3)">
    <g id="ic_fluent_people_team_28_filled" transform="translate(2 3)">
      <path id="_-Color" data-name="ðŸŽ¨-Color" d="M19.723,12.818a2.064,2.064,0,0,1,1.969,2.148v8.283A6.488,6.488,0,0,1,15.5,30a6.488,6.488,0,0,1-6.189-6.751V14.966a2.064,2.064,0,0,1,1.969-2.148Zm-15.754,0,4.93,0a3.53,3.53,0,0,0-.7,1.88l-.01.27v8.283a8.516,8.516,0,0,0,.9,3.837,4.694,4.694,0,0,1-2.026.459A5.309,5.309,0,0,1,2,22.021V14.966A2.064,2.064,0,0,1,3.969,12.818Zm18.139,0,4.923,0A2.064,2.064,0,0,1,29,14.966v7.057a5.308,5.308,0,0,1-5.062,5.523,4.688,4.688,0,0,1-2.022-.458l.063-.124a8.5,8.5,0,0,0,.83-3.314l.009-.4V14.966A3.551,3.551,0,0,0,22.108,12.816ZM15.5,3a4.128,4.128,0,0,1,3.938,4.3,4.128,4.128,0,0,1-3.937,4.3,4.128,4.128,0,0,1-3.937-4.3A4.128,4.128,0,0,1,15.5,3Zm9,1.227a3.538,3.538,0,0,1,3.375,3.682A3.538,3.538,0,0,1,24.5,11.591a3.538,3.538,0,0,1-3.375-3.682A3.538,3.538,0,0,1,24.5,4.227ZM6.5,4.227A3.538,3.538,0,0,1,9.872,7.909,3.538,3.538,0,0,1,6.5,11.591,3.538,3.538,0,0,1,3.122,7.909,3.538,3.538,0,0,1,6.5,4.227Z" transform="translate(-2 -3)" fill="#4285f4"/>
    </g>
  </g>
</svg>
