<svg xmlns="http://www.w3.org/2000/svg" width="552" height="127.264" viewBox="0 0 552 127.264">
  <g id="Group_10" data-name="Group 10" transform="translate(-452.575 -485)">
    <text id="Vidyalankar_Institute_of_Technology_" data-name="Vidyalankar Institute of Technology " transform="translate(452.575 603.264)" fill="#656c73" font-size="35" font-family="SegoeUI, Segoe UI"><tspan x="0" y="0">Vidyalankar Institute of Technology </tspan></text>
    <g id="arrow" transform="translate(452.575 498.66)">
      <g id="Group_2" data-name="Group 2" transform="translate(4.841)">
        <path id="Path_28" data-name="Path 28" d="M479.412,536.942l19.669-11.356a9.678,9.678,0,0,0-9.678-16.762l-33.987,19.622Z" transform="translate(-455.416 -507.526)" fill="#ea4335"/>
      </g>
      <g id="Group_3" data-name="Group 3" transform="translate(0 19.622)">
        <path id="Path_29" data-name="Path 29" d="M494.233,566.129a9.679,9.679,0,0,0,4.848-18.061l-33.987-19.622a9.678,9.678,0,0,0-9.678,16.763L489.4,564.83A9.623,9.623,0,0,0,494.233,566.129Z" transform="translate(-450.575 -527.147)" fill="#4285f4"/>
      </g>
      <g id="Group_4" data-name="Group 4" transform="translate(67.777 29.01)">
        <path id="Path_30" data-name="Path 30" d="M528.04,566.129a9.623,9.623,0,0,0,4.83-1.3l33.986-19.621-23.69-8.673-19.974,11.532a9.679,9.679,0,0,0,4.848,18.061Z" transform="translate(-518.352 -536.536)" fill="#fbbc04"/>
      </g>
      <g id="Group_5" data-name="Group 5" transform="translate(67.777 0)">
        <path id="Path_31" data-name="Path 31" d="M562.008,546.507a9.679,9.679,0,0,0,4.848-18.061L532.87,508.824a9.678,9.678,0,0,0-9.678,16.762l33.987,19.623A9.641,9.641,0,0,0,562.008,546.507Z" transform="translate(-518.352 -507.526)" fill="#34a853"/>
      </g>
    </g>
    <text id="Google_DSC" data-name="Google DSC" transform="translate(600 550)" fill="#656c73" font-size="60" font-family="SegoeUI, Segoe UI"><tspan x="0" y="0">Google DSC</tspan></text>
  </g>
</svg>
