<svg width="122" height="59" viewBox="0 0 122 59" fill="none" xmlns="http://www.w3.org/2000/svg">
<path d="M28.837 29.416L48.506 18.06C50.7059 16.7651 52.305 14.6535 52.9553 12.185C53.6056 9.71652 53.2543 7.0911 51.9779 4.88043C50.7015 2.66976 48.6034 1.05291 46.1405 0.381928C43.6776 -0.289052 41.0493 0.0402194 38.828 1.298L4.84097 20.92L28.837 29.416Z" fill="#EA4335"/>
<path d="M43.658 58.603C45.7893 58.6048 47.8616 57.903 49.5534 56.6066C51.2451 55.3102 52.4616 53.4917 53.0141 51.4332C53.5667 49.3747 53.4243 47.1915 52.6092 45.2222C51.7941 43.2529 50.3517 41.6077 48.506 40.542L14.519 20.92C12.2961 19.6366 9.65438 19.2888 7.17506 19.9532C4.69573 20.6175 2.58188 22.2396 1.2985 24.4625C0.0151198 26.6854 -0.332642 29.3271 0.331705 31.8064C0.996053 34.2857 2.61807 36.3996 4.84098 37.683L38.825 57.304C40.2932 58.1557 41.9606 58.6038 43.658 58.603V58.603Z" fill="#4285F4"/>
<path d="M77.4649 58.603C79.1614 58.603 80.8277 58.1545 82.295 57.303L116.281 37.682L92.591 29.009L72.617 40.541C70.7713 41.6068 69.3289 43.252 68.5138 45.2213C67.6986 47.1905 67.5563 49.3738 68.1088 51.4323C68.6613 53.4907 69.8779 55.3093 71.5696 56.6057C73.2613 57.902 75.3336 58.6038 77.4649 58.602V58.603Z" fill="#FBBC04"/>
<path d="M111.433 38.981C113.564 38.9828 115.637 38.281 117.328 36.9846C119.02 35.6882 120.237 33.8697 120.789 31.8113C121.342 29.7528 121.199 27.5695 120.384 25.6002C119.569 23.6309 118.127 21.9857 116.281 20.92L82.295 1.298C80.0737 0.0402194 77.4454 -0.289052 74.9825 0.381928C72.5195 1.05291 70.4214 2.66976 69.1451 4.88043C67.8687 7.0911 67.5174 9.71652 68.1676 12.185C68.8179 14.6535 70.4171 16.7651 72.617 18.06L106.604 37.683C108.071 38.5328 109.737 38.9806 111.433 38.981Z" fill="#34A853"/>
<path d="M28.837 29.416L48.506 18.06C50.7059 16.7651 52.305 14.6535 52.9553 12.185C53.6056 9.71652 53.2543 7.0911 51.9779 4.88043C50.7015 2.66976 48.6034 1.05291 46.1405 0.381928C43.6776 -0.289052 41.0493 0.0402194 38.828 1.298L4.84097 20.92L28.837 29.416Z" fill="#EA4335"/>
<path d="M43.658 58.603C45.7893 58.6048 47.8616 57.903 49.5534 56.6066C51.2451 55.3102 52.4616 53.4917 53.0141 51.4332C53.5667 49.3747 53.4243 47.1915 52.6092 45.2222C51.7941 43.2529 50.3517 41.6077 48.506 40.542L14.519 20.92C12.2961 19.6366 9.65438 19.2888 7.17506 19.9532C4.69573 20.6175 2.58188 22.2396 1.2985 24.4625C0.0151198 26.6854 -0.332642 29.3271 0.331705 31.8064C0.996053 34.2857 2.61807 36.3996 4.84098 37.683L38.825 57.304C40.2932 58.1557 41.9606 58.6038 43.658 58.603V58.603Z" fill="#4285F4"/>
<path d="M77.4649 58.603C79.1614 58.603 80.8277 58.1545 82.295 57.303L116.281 37.682L92.591 29.009L72.617 40.541C70.7713 41.6068 69.3289 43.252 68.5138 45.2213C67.6986 47.1905 67.5563 49.3738 68.1088 51.4323C68.6613 53.4907 69.8779 55.3093 71.5696 56.6057C73.2613 57.902 75.3336 58.6038 77.4649 58.602V58.603Z" fill="#FBBC04"/>
<path d="M111.433 38.981C113.564 38.9828 115.637 38.281 117.328 36.9846C119.02 35.6882 120.237 33.8697 120.789 31.8113C121.342 29.7528 121.199 27.5695 120.384 25.6002C119.569 23.6309 118.127 21.9857 116.281 20.92L82.295 1.298C80.0737 0.0402194 77.4454 -0.289052 74.9825 0.381928C72.5195 1.05291 70.4214 2.66976 69.1451 4.88043C67.8687 7.0911 67.5174 9.71652 68.1676 12.185C68.8179 14.6535 70.4171 16.7651 72.617 18.06L106.604 37.683C108.071 38.5328 109.737 38.9806 111.433 38.981Z" fill="#34A853"/>
</svg>
